<mxfile host="app.diagrams.net" modified="2021-09-22T21:02:22.785Z" agent="5.0 (Macintosh; Intel Mac OS X 10_15_7) AppleWebKit/537.36 (KHTML, like Gecko) Chrome/92.0.4515.159 Safari/537.36" etag="62cdnkca30ZnLltsDn2L" version="15.2.9" type="github">
  <diagram id="C5RBs43oDa-KdzZeNtuy" name="Page-1">
    <mxGraphModel dx="946" dy="559" grid="1" gridSize="10" guides="1" tooltips="1" connect="1" arrows="1" fold="1" page="1" pageScale="1" pageWidth="827" pageHeight="1169" math="0" shadow="0">
      <root>
        <mxCell id="WIyWlLk6GJQsqaUBKTNV-0" />
        <mxCell id="WIyWlLk6GJQsqaUBKTNV-1" parent="WIyWlLk6GJQsqaUBKTNV-0" />
        <mxCell id="IaZKXdvV_vQktVJo6ZAf-43" style="edgeStyle=orthogonalEdgeStyle;rounded=0;orthogonalLoop=1;jettySize=auto;html=1;exitX=0.25;exitY=0.1;exitDx=0;exitDy=0;exitPerimeter=0;entryX=0.25;entryY=0;entryDx=0;entryDy=0;" edge="1" parent="WIyWlLk6GJQsqaUBKTNV-1" source="IaZKXdvV_vQktVJo6ZAf-0" target="IaZKXdvV_vQktVJo6ZAf-4">
          <mxGeometry relative="1" as="geometry" />
        </mxCell>
        <mxCell id="IaZKXdvV_vQktVJo6ZAf-50" style="edgeStyle=orthogonalEdgeStyle;rounded=0;orthogonalLoop=1;jettySize=auto;html=1;exitX=0.75;exitY=0.1;exitDx=0;exitDy=0;exitPerimeter=0;entryX=0.736;entryY=-0.012;entryDx=0;entryDy=0;entryPerimeter=0;" edge="1" parent="WIyWlLk6GJQsqaUBKTNV-1" source="IaZKXdvV_vQktVJo6ZAf-0" target="IaZKXdvV_vQktVJo6ZAf-6">
          <mxGeometry relative="1" as="geometry">
            <mxPoint x="499" y="157" as="targetPoint" />
            <Array as="points">
              <mxPoint x="499" y="46" />
            </Array>
          </mxGeometry>
        </mxCell>
        <mxCell id="IaZKXdvV_vQktVJo6ZAf-0" value="User" style="shape=umlActor;verticalLabelPosition=bottom;verticalAlign=top;html=1;outlineConnect=0;" vertex="1" parent="WIyWlLk6GJQsqaUBKTNV-1">
          <mxGeometry x="345" y="40" width="30" height="60" as="geometry" />
        </mxCell>
        <mxCell id="IaZKXdvV_vQktVJo6ZAf-1" value="UI Layer" style="rounded=1;whiteSpace=wrap;html=1;" vertex="1" parent="WIyWlLk6GJQsqaUBKTNV-1">
          <mxGeometry x="40" y="160" width="80" height="40" as="geometry" />
        </mxCell>
        <mxCell id="IaZKXdvV_vQktVJo6ZAf-2" value="Controller Layer" style="rounded=1;whiteSpace=wrap;html=1;" vertex="1" parent="WIyWlLk6GJQsqaUBKTNV-1">
          <mxGeometry x="40" y="240" width="80" height="40" as="geometry" />
        </mxCell>
        <mxCell id="IaZKXdvV_vQktVJo6ZAf-3" value="Data Layer" style="rounded=1;whiteSpace=wrap;html=1;" vertex="1" parent="WIyWlLk6GJQsqaUBKTNV-1">
          <mxGeometry x="40" y="320" width="80" height="40" as="geometry" />
        </mxCell>
        <mxCell id="IaZKXdvV_vQktVJo6ZAf-24" style="edgeStyle=orthogonalEdgeStyle;rounded=0;orthogonalLoop=1;jettySize=auto;html=1;exitX=0.25;exitY=1;exitDx=0;exitDy=0;entryX=0.25;entryY=0;entryDx=0;entryDy=0;" edge="1" parent="WIyWlLk6GJQsqaUBKTNV-1" source="IaZKXdvV_vQktVJo6ZAf-4" target="IaZKXdvV_vQktVJo6ZAf-9">
          <mxGeometry relative="1" as="geometry" />
        </mxCell>
        <mxCell id="IaZKXdvV_vQktVJo6ZAf-42" style="edgeStyle=orthogonalEdgeStyle;rounded=0;orthogonalLoop=1;jettySize=auto;html=1;exitX=0.75;exitY=0;exitDx=0;exitDy=0;" edge="1" parent="WIyWlLk6GJQsqaUBKTNV-1" source="IaZKXdvV_vQktVJo6ZAf-4">
          <mxGeometry relative="1" as="geometry">
            <mxPoint x="320" y="70" as="targetPoint" />
            <Array as="points">
              <mxPoint x="260" y="70" />
              <mxPoint x="320" y="70" />
            </Array>
          </mxGeometry>
        </mxCell>
        <mxCell id="IaZKXdvV_vQktVJo6ZAf-4" value="Calendar" style="rounded=0;whiteSpace=wrap;html=1;" vertex="1" parent="WIyWlLk6GJQsqaUBKTNV-1">
          <mxGeometry x="200" y="160" width="80" height="40" as="geometry" />
        </mxCell>
        <mxCell id="IaZKXdvV_vQktVJo6ZAf-30" style="edgeStyle=orthogonalEdgeStyle;rounded=0;orthogonalLoop=1;jettySize=auto;html=1;exitX=0.25;exitY=1;exitDx=0;exitDy=0;entryX=0.25;entryY=0;entryDx=0;entryDy=0;" edge="1" parent="WIyWlLk6GJQsqaUBKTNV-1" source="IaZKXdvV_vQktVJo6ZAf-5" target="IaZKXdvV_vQktVJo6ZAf-12">
          <mxGeometry relative="1" as="geometry" />
        </mxCell>
        <mxCell id="IaZKXdvV_vQktVJo6ZAf-5" value="Textbooks" style="rounded=0;whiteSpace=wrap;html=1;" vertex="1" parent="WIyWlLk6GJQsqaUBKTNV-1">
          <mxGeometry x="320" y="160" width="80" height="40" as="geometry" />
        </mxCell>
        <mxCell id="IaZKXdvV_vQktVJo6ZAf-36" style="edgeStyle=orthogonalEdgeStyle;rounded=0;orthogonalLoop=1;jettySize=auto;html=1;exitX=0.25;exitY=1;exitDx=0;exitDy=0;entryX=0.25;entryY=0;entryDx=0;entryDy=0;" edge="1" parent="WIyWlLk6GJQsqaUBKTNV-1" source="IaZKXdvV_vQktVJo6ZAf-6" target="IaZKXdvV_vQktVJo6ZAf-15">
          <mxGeometry relative="1" as="geometry" />
        </mxCell>
        <mxCell id="IaZKXdvV_vQktVJo6ZAf-6" value="Discussion Board" style="rounded=0;whiteSpace=wrap;html=1;" vertex="1" parent="WIyWlLk6GJQsqaUBKTNV-1">
          <mxGeometry x="440" y="160" width="80" height="40" as="geometry" />
        </mxCell>
        <mxCell id="IaZKXdvV_vQktVJo6ZAf-7" value="Processing Layer" style="rounded=1;whiteSpace=wrap;html=1;" vertex="1" parent="WIyWlLk6GJQsqaUBKTNV-1">
          <mxGeometry x="40" y="320" width="80" height="40" as="geometry" />
        </mxCell>
        <mxCell id="IaZKXdvV_vQktVJo6ZAf-8" value="DAO Layer" style="rounded=1;whiteSpace=wrap;html=1;" vertex="1" parent="WIyWlLk6GJQsqaUBKTNV-1">
          <mxGeometry x="40" y="400" width="80" height="40" as="geometry" />
        </mxCell>
        <mxCell id="IaZKXdvV_vQktVJo6ZAf-25" style="edgeStyle=orthogonalEdgeStyle;rounded=0;orthogonalLoop=1;jettySize=auto;html=1;exitX=0.25;exitY=1;exitDx=0;exitDy=0;entryX=0.25;entryY=0;entryDx=0;entryDy=0;" edge="1" parent="WIyWlLk6GJQsqaUBKTNV-1" source="IaZKXdvV_vQktVJo6ZAf-9" target="IaZKXdvV_vQktVJo6ZAf-10">
          <mxGeometry relative="1" as="geometry" />
        </mxCell>
        <mxCell id="IaZKXdvV_vQktVJo6ZAf-27" style="edgeStyle=orthogonalEdgeStyle;rounded=0;orthogonalLoop=1;jettySize=auto;html=1;exitX=0.75;exitY=0;exitDx=0;exitDy=0;entryX=0.75;entryY=1;entryDx=0;entryDy=0;" edge="1" parent="WIyWlLk6GJQsqaUBKTNV-1" source="IaZKXdvV_vQktVJo6ZAf-9" target="IaZKXdvV_vQktVJo6ZAf-4">
          <mxGeometry relative="1" as="geometry" />
        </mxCell>
        <mxCell id="IaZKXdvV_vQktVJo6ZAf-9" value="Accessing calendar controller" style="rounded=0;whiteSpace=wrap;html=1;" vertex="1" parent="WIyWlLk6GJQsqaUBKTNV-1">
          <mxGeometry x="200" y="240" width="80" height="40" as="geometry" />
        </mxCell>
        <mxCell id="IaZKXdvV_vQktVJo6ZAf-26" style="edgeStyle=orthogonalEdgeStyle;rounded=0;orthogonalLoop=1;jettySize=auto;html=1;exitX=0.25;exitY=1;exitDx=0;exitDy=0;entryX=0.25;entryY=0;entryDx=0;entryDy=0;" edge="1" parent="WIyWlLk6GJQsqaUBKTNV-1" source="IaZKXdvV_vQktVJo6ZAf-10" target="IaZKXdvV_vQktVJo6ZAf-11">
          <mxGeometry relative="1" as="geometry" />
        </mxCell>
        <mxCell id="IaZKXdvV_vQktVJo6ZAf-28" style="edgeStyle=orthogonalEdgeStyle;rounded=0;orthogonalLoop=1;jettySize=auto;html=1;exitX=0.75;exitY=0;exitDx=0;exitDy=0;entryX=0.75;entryY=1;entryDx=0;entryDy=0;" edge="1" parent="WIyWlLk6GJQsqaUBKTNV-1" source="IaZKXdvV_vQktVJo6ZAf-10" target="IaZKXdvV_vQktVJo6ZAf-9">
          <mxGeometry relative="1" as="geometry" />
        </mxCell>
        <mxCell id="IaZKXdvV_vQktVJo6ZAf-10" value="Process input" style="rounded=0;whiteSpace=wrap;html=1;" vertex="1" parent="WIyWlLk6GJQsqaUBKTNV-1">
          <mxGeometry x="200" y="320" width="80" height="40" as="geometry" />
        </mxCell>
        <mxCell id="IaZKXdvV_vQktVJo6ZAf-29" style="edgeStyle=orthogonalEdgeStyle;rounded=0;orthogonalLoop=1;jettySize=auto;html=1;exitX=0.75;exitY=0;exitDx=0;exitDy=0;entryX=0.75;entryY=1;entryDx=0;entryDy=0;" edge="1" parent="WIyWlLk6GJQsqaUBKTNV-1" source="IaZKXdvV_vQktVJo6ZAf-11" target="IaZKXdvV_vQktVJo6ZAf-10">
          <mxGeometry relative="1" as="geometry" />
        </mxCell>
        <mxCell id="IaZKXdvV_vQktVJo6ZAf-11" value="Add/access date to calendar in DB" style="rounded=0;whiteSpace=wrap;html=1;" vertex="1" parent="WIyWlLk6GJQsqaUBKTNV-1">
          <mxGeometry x="200" y="400" width="80" height="60" as="geometry" />
        </mxCell>
        <mxCell id="IaZKXdvV_vQktVJo6ZAf-31" style="edgeStyle=orthogonalEdgeStyle;rounded=0;orthogonalLoop=1;jettySize=auto;html=1;exitX=0.25;exitY=1;exitDx=0;exitDy=0;entryX=0.25;entryY=0;entryDx=0;entryDy=0;" edge="1" parent="WIyWlLk6GJQsqaUBKTNV-1" source="IaZKXdvV_vQktVJo6ZAf-12" target="IaZKXdvV_vQktVJo6ZAf-13">
          <mxGeometry relative="1" as="geometry" />
        </mxCell>
        <mxCell id="IaZKXdvV_vQktVJo6ZAf-35" style="edgeStyle=orthogonalEdgeStyle;rounded=0;orthogonalLoop=1;jettySize=auto;html=1;exitX=0.75;exitY=0;exitDx=0;exitDy=0;entryX=0.75;entryY=1;entryDx=0;entryDy=0;" edge="1" parent="WIyWlLk6GJQsqaUBKTNV-1" source="IaZKXdvV_vQktVJo6ZAf-12" target="IaZKXdvV_vQktVJo6ZAf-5">
          <mxGeometry relative="1" as="geometry" />
        </mxCell>
        <mxCell id="IaZKXdvV_vQktVJo6ZAf-12" value="Accessing resource controller" style="rounded=0;whiteSpace=wrap;html=1;" vertex="1" parent="WIyWlLk6GJQsqaUBKTNV-1">
          <mxGeometry x="320" y="240" width="80" height="40" as="geometry" />
        </mxCell>
        <mxCell id="IaZKXdvV_vQktVJo6ZAf-32" style="edgeStyle=orthogonalEdgeStyle;rounded=0;orthogonalLoop=1;jettySize=auto;html=1;exitX=0.25;exitY=1;exitDx=0;exitDy=0;entryX=0.25;entryY=0;entryDx=0;entryDy=0;" edge="1" parent="WIyWlLk6GJQsqaUBKTNV-1" source="IaZKXdvV_vQktVJo6ZAf-13" target="IaZKXdvV_vQktVJo6ZAf-14">
          <mxGeometry relative="1" as="geometry" />
        </mxCell>
        <mxCell id="IaZKXdvV_vQktVJo6ZAf-34" style="edgeStyle=orthogonalEdgeStyle;rounded=0;orthogonalLoop=1;jettySize=auto;html=1;exitX=0.75;exitY=0;exitDx=0;exitDy=0;entryX=0.75;entryY=1;entryDx=0;entryDy=0;" edge="1" parent="WIyWlLk6GJQsqaUBKTNV-1" source="IaZKXdvV_vQktVJo6ZAf-13" target="IaZKXdvV_vQktVJo6ZAf-12">
          <mxGeometry relative="1" as="geometry" />
        </mxCell>
        <mxCell id="IaZKXdvV_vQktVJo6ZAf-13" value="Process input" style="rounded=0;whiteSpace=wrap;html=1;" vertex="1" parent="WIyWlLk6GJQsqaUBKTNV-1">
          <mxGeometry x="320" y="320" width="80" height="40" as="geometry" />
        </mxCell>
        <mxCell id="IaZKXdvV_vQktVJo6ZAf-33" style="edgeStyle=orthogonalEdgeStyle;rounded=0;orthogonalLoop=1;jettySize=auto;html=1;exitX=0.75;exitY=0;exitDx=0;exitDy=0;entryX=0.75;entryY=1;entryDx=0;entryDy=0;" edge="1" parent="WIyWlLk6GJQsqaUBKTNV-1" source="IaZKXdvV_vQktVJo6ZAf-14" target="IaZKXdvV_vQktVJo6ZAf-13">
          <mxGeometry relative="1" as="geometry" />
        </mxCell>
        <mxCell id="IaZKXdvV_vQktVJo6ZAf-14" value="Add/access document to resource in DB" style="rounded=0;whiteSpace=wrap;html=1;" vertex="1" parent="WIyWlLk6GJQsqaUBKTNV-1">
          <mxGeometry x="320" y="400" width="80" height="60" as="geometry" />
        </mxCell>
        <mxCell id="IaZKXdvV_vQktVJo6ZAf-37" style="edgeStyle=orthogonalEdgeStyle;rounded=0;orthogonalLoop=1;jettySize=auto;html=1;exitX=0.25;exitY=1;exitDx=0;exitDy=0;entryX=0.25;entryY=0;entryDx=0;entryDy=0;" edge="1" parent="WIyWlLk6GJQsqaUBKTNV-1" source="IaZKXdvV_vQktVJo6ZAf-15" target="IaZKXdvV_vQktVJo6ZAf-16">
          <mxGeometry relative="1" as="geometry" />
        </mxCell>
        <mxCell id="IaZKXdvV_vQktVJo6ZAf-41" style="edgeStyle=orthogonalEdgeStyle;rounded=0;orthogonalLoop=1;jettySize=auto;html=1;exitX=0.75;exitY=0;exitDx=0;exitDy=0;entryX=0.75;entryY=1;entryDx=0;entryDy=0;" edge="1" parent="WIyWlLk6GJQsqaUBKTNV-1" source="IaZKXdvV_vQktVJo6ZAf-15" target="IaZKXdvV_vQktVJo6ZAf-6">
          <mxGeometry relative="1" as="geometry" />
        </mxCell>
        <mxCell id="IaZKXdvV_vQktVJo6ZAf-15" value="Accessing disc. board controller" style="rounded=0;whiteSpace=wrap;html=1;" vertex="1" parent="WIyWlLk6GJQsqaUBKTNV-1">
          <mxGeometry x="440" y="240" width="80" height="40" as="geometry" />
        </mxCell>
        <mxCell id="IaZKXdvV_vQktVJo6ZAf-38" style="edgeStyle=orthogonalEdgeStyle;rounded=0;orthogonalLoop=1;jettySize=auto;html=1;exitX=0.25;exitY=1;exitDx=0;exitDy=0;entryX=0.25;entryY=0;entryDx=0;entryDy=0;" edge="1" parent="WIyWlLk6GJQsqaUBKTNV-1" source="IaZKXdvV_vQktVJo6ZAf-16" target="IaZKXdvV_vQktVJo6ZAf-17">
          <mxGeometry relative="1" as="geometry" />
        </mxCell>
        <mxCell id="IaZKXdvV_vQktVJo6ZAf-40" style="edgeStyle=orthogonalEdgeStyle;rounded=0;orthogonalLoop=1;jettySize=auto;html=1;exitX=0.75;exitY=0;exitDx=0;exitDy=0;entryX=0.75;entryY=1;entryDx=0;entryDy=0;" edge="1" parent="WIyWlLk6GJQsqaUBKTNV-1" source="IaZKXdvV_vQktVJo6ZAf-16" target="IaZKXdvV_vQktVJo6ZAf-15">
          <mxGeometry relative="1" as="geometry" />
        </mxCell>
        <mxCell id="IaZKXdvV_vQktVJo6ZAf-16" value="Process input" style="rounded=0;whiteSpace=wrap;html=1;" vertex="1" parent="WIyWlLk6GJQsqaUBKTNV-1">
          <mxGeometry x="440" y="320" width="80" height="40" as="geometry" />
        </mxCell>
        <mxCell id="IaZKXdvV_vQktVJo6ZAf-39" style="edgeStyle=orthogonalEdgeStyle;rounded=0;orthogonalLoop=1;jettySize=auto;html=1;exitX=0.75;exitY=0;exitDx=0;exitDy=0;entryX=0.75;entryY=1;entryDx=0;entryDy=0;" edge="1" parent="WIyWlLk6GJQsqaUBKTNV-1" source="IaZKXdvV_vQktVJo6ZAf-17" target="IaZKXdvV_vQktVJo6ZAf-16">
          <mxGeometry relative="1" as="geometry" />
        </mxCell>
        <mxCell id="IaZKXdvV_vQktVJo6ZAf-17" value="Add/access message to discussion board in DB" style="rounded=0;whiteSpace=wrap;html=1;" vertex="1" parent="WIyWlLk6GJQsqaUBKTNV-1">
          <mxGeometry x="440" y="400" width="80" height="60" as="geometry" />
        </mxCell>
        <mxCell id="IaZKXdvV_vQktVJo6ZAf-44" value="" style="endArrow=classic;html=1;entryX=0.25;entryY=0;entryDx=0;entryDy=0;" edge="1" parent="WIyWlLk6GJQsqaUBKTNV-1" target="IaZKXdvV_vQktVJo6ZAf-5">
          <mxGeometry width="50" height="50" relative="1" as="geometry">
            <mxPoint x="340" y="130" as="sourcePoint" />
            <mxPoint x="385" y="80" as="targetPoint" />
          </mxGeometry>
        </mxCell>
        <mxCell id="IaZKXdvV_vQktVJo6ZAf-45" value="" style="endArrow=classic;html=1;exitX=0.75;exitY=0;exitDx=0;exitDy=0;" edge="1" parent="WIyWlLk6GJQsqaUBKTNV-1" source="IaZKXdvV_vQktVJo6ZAf-5">
          <mxGeometry width="50" height="50" relative="1" as="geometry">
            <mxPoint x="379" y="160" as="sourcePoint" />
            <mxPoint x="381" y="127" as="targetPoint" />
            <Array as="points" />
          </mxGeometry>
        </mxCell>
        <mxCell id="IaZKXdvV_vQktVJo6ZAf-48" value="" style="endArrow=none;html=1;" edge="1" parent="WIyWlLk6GJQsqaUBKTNV-1">
          <mxGeometry width="50" height="50" relative="1" as="geometry">
            <mxPoint x="460" y="160" as="sourcePoint" />
            <mxPoint x="460" y="70" as="targetPoint" />
          </mxGeometry>
        </mxCell>
        <mxCell id="IaZKXdvV_vQktVJo6ZAf-49" value="" style="endArrow=classic;html=1;" edge="1" parent="WIyWlLk6GJQsqaUBKTNV-1">
          <mxGeometry width="50" height="50" relative="1" as="geometry">
            <mxPoint x="460" y="69.76" as="sourcePoint" />
            <mxPoint x="400" y="70" as="targetPoint" />
          </mxGeometry>
        </mxCell>
      </root>
    </mxGraphModel>
  </diagram>
</mxfile>
